<svg xmlns="http://www.w3.org/2000/svg" xmlns:xlink="http://www.w3.org/1999/xlink">
  <defs>
    <style>
      .icon {
        display: none;
      }

      .icon:target {
        display: inline;
      }
    </style>
  </defs><svg fill="currentColor" viewBox="0 0 256 256" id="acorn" class="icon">
    <path d="M232,104a56.06,56.06,0,0,0-56-56H136a24,24,0,0,1,24-24,8,8,0,0,0,0-16,40,40,0,0,0-40,40H80a56.06,56.06,0,0,0-56,56,16,16,0,0,0,8,13.83V128c0,35.53,33.12,62.12,59.74,83.49C103.66,221.07,120,234.18,120,240a8,8,0,0,0,16,0c0-5.82,16.34-18.93,28.26-28.51C190.88,190.12,224,163.53,224,128V117.83A16,16,0,0,0,232,104ZM80,64h96a40.06,40.06,0,0,1,40,40H40A40,40,0,0,1,80,64Zm74.25,135c-10.62,8.52-20,16-26.25,23.37-6.25-7.32-15.63-14.85-26.25-23.37C77.8,179.79,48,155.86,48,128v-8H208v8C208,155.86,178.2,179.79,154.25,199Z" />
  </svg><svg fill="currentColor" viewBox="0 0 256 256" id="anchor" class="icon">
    <path d="M216,136a8,8,0,0,0-8,8c0,24.69-13.77,29.64-38.1,36.28-11.36,3.1-24.12,6.6-33.9,14.34V128h32a8,8,0,0,0,0-16H136V87a32,32,0,1,0-16,0v25H88a8,8,0,0,0,0,16h32v66.62c-9.78-7.74-22.54-11.24-33.9-14.34C61.77,173.64,48,168.69,48,144a8,8,0,0,0-16,0c0,38.11,27.67,45.66,49.9,51.72C106.23,202.36,120,207.31,120,232a8,8,0,0,0,16,0c0-24.69,13.77-29.64,38.1-36.28C196.33,189.66,224,182.11,224,144A8,8,0,0,0,216,136ZM112,56a16,16,0,1,1,16,16A16,16,0,0,1,112,56Z" />
  </svg><svg viewBox="0 0 24 24" fill="currentColor" class="icon" id="assembly">
    <path stroke="none" d="M0 0h24v24H0z" fill="none" />
    <path d="M13.666 1.429l6.75 3.98q .1 .06 .18 .133l.009 .008l.106 .075a3.22 3.22 0 0 1 1.284 2.39l.005 .203v7.284c0 1.175 -.643 2.256 -1.623 2.793l-6.804 4.302c-.98 .538 -2.166 .538 -3.2 -.032l-6.695 -4.237a3.23 3.23 0 0 1 -1.678 -2.826v-7.285a3.21 3.21 0 0 1 1.65 -2.808l6.775 -3.995a3.34 3.34 0 0 1 3.24 .015m-.64 5.343a2.03 2.03 0 0 0 -2 -.014l-3.023 1.804a1.99 1.99 0 0 0 -1.002 1.736v3.278a2 2 0 0 0 1.03 1.75l2.946 1.89c.657 .367 1.39 .367 1.994 .033l3.054 -1.955c.582 -.322 .976 -.992 .976 -1.719v-3.277l-.005 -.164a2 2 0 0 0 -.725 -1.391l-.092 -.07l-.056 -.047a1 1 0 0 0 -.096 -.064z" />
  </svg><svg viewBox="0 0 24 24" fill="none" stroke="currentColor" stroke-width="2" stroke-linecap="round" stroke-linejoin="round" class="icon" id="automation">
    <path stroke="none" d="M0 0h24v24H0z" fill="none" />
    <path d="M13 20.693c-.905 .628 -2.36 .292 -2.675 -1.01a1.724 1.724 0 0 0 -2.573 -1.066c-1.543 .94 -3.31 -.826 -2.37 -2.37a1.724 1.724 0 0 0 -1.065 -2.572c-1.756 -.426 -1.756 -2.924 0 -3.35a1.724 1.724 0 0 0 1.066 -2.573c-.94 -1.543 .826 -3.31 2.37 -2.37c1 .608 2.296 .07 2.572 -1.065c.426 -1.756 2.924 -1.756 3.35 0a1.724 1.724 0 0 0 2.573 1.066c1.543 -.94 3.31 .826 2.37 2.37a1.724 1.724 0 0 0 1.065 2.572c1.492 .362 1.716 2.219 .674 3.03" />
    <path d="M9 12a3 3 0 1 0 6 0a3 3 0 0 0 -6 0" />
    <path d="M17 22l5 -3l-5 -3z" />
  </svg><svg fill="none" viewBox="0 0 24 24" stroke="currentColor" id="chat" class="icon">
    <path strokeLinecap="round" strokeLinejoin="round" d="M8.625 12a.375.375 0 1 1-.75 0 .375.375 0 0 1 .75 0Zm0 0H8.25m4.125 0a.375.375 0 1 1-.75 0 .375.375 0 0 1 .75 0Zm0 0H12m4.125 0a.375.375 0 1 1-.75 0 .375.375 0 0 1 .75 0Zm0 0h-.375M21 12c0 4.556-4.03 8.25-9 8.25a9.764 9.764 0 0 1-2.555-.337A5.972 5.972 0 0 1 5.41 20.97a5.969 5.969 0 0 1-.474-.065 4.48 4.48 0 0 0 .978-2.025c.09-.457-.133-.901-.467-1.226C3.93 16.178 3 14.189 3 12c0-4.556 4.03-8.25 9-8.25s9 3.694 9 8.25Z" />
  </svg><svg fill="none" viewBox="0 0 24 24" stroke="currentColor" id="check" class="icon">
    <path strokeLinecap="round" strokeLinejoin="round" d="M8.625 12a.375.375 0 1 1-.75 0 .375.375 0 0 1 .75 0Zm0 0H8.25m4.125 0a.375.375 0 1 1-.75 0 .375.375 0 0 1 .75 0Zm0 0H12m4.125 0a.375.375 0 1 1-.75 0 .375.375 0 0 1 .75 0Zm0 0h-.375M21 12c0 4.556-4.03 8.25-9 8.25a9.764 9.764 0 0 1-2.555-.337A5.972 5.972 0 0 1 5.41 20.97a5.969 5.969 0 0 1-.474-.065 4.48 4.48 0 0 0 .978-2.025c.09-.457-.133-.901-.467-1.226C3.93 16.178 3 14.189 3 12c0-4.556 4.03-8.25 9-8.25s9 3.694 9 8.25Z" />
  </svg>
</svg>